HIERARCHY
ROOT Hips
{
  OFFSET 10.299 22.142 -234.362
  CHANNELS 6 Xposition Yposition Zposition Zrotation Xrotation Yrotation
  JOINT LeftUpLeg
  {
    OFFSET 7.150 -5.737 2.691
    CHANNELS 6 Xposition Yposition Zposition Zrotation Xrotation Yrotation
    JOINT LeftLeg
    {
      OFFSET -0.000 -45.224 0.000
      CHANNELS 6 Xposition Yposition Zposition Zrotation Xrotation Yrotation
      JOINT LeftFoot
      {
        OFFSET -0.000 -40.405 -0.000
        CHANNELS 6 Xposition Yposition Zposition Zrotation Xrotation Yrotation
        End Site
        {
          OFFSET 0.000 -7.291 4.209
        }
      }
    }
  }
  JOINT RightUpLeg
  {
    OFFSET -7.319 -6.094 3.573
    CHANNELS 6 Xposition Yposition Zposition Zrotation Xrotation Yrotation
    JOINT RightLeg
    {
      OFFSET -0.000 -45.129 0.000
      CHANNELS 6 Xposition Yposition Zposition Zrotation Xrotation Yrotation
      JOINT RightFoot
      {
        OFFSET 0.000 -41.918 -0.000
        CHANNELS 6 Xposition Yposition Zposition Zrotation Xrotation Yrotation
        End Site
        {
          OFFSET 0.000 -7.460 4.307
        }
      }
    }
  }
  JOINT Spine
  {
    OFFSET 0.000 5.662 -5.662
    CHANNELS 6 Xposition Yposition Zposition Zrotation Xrotation Yrotation
    JOINT LeftShoulder
    {
      OFFSET -0.000 42.219 0.000
      CHANNELS 6 Xposition Yposition Zposition Zrotation Xrotation Yrotation
      JOINT LeftArm
      {
        OFFSET 18.493 0.000 -0.000
        CHANNELS 6 Xposition Yposition Zposition Zrotation Xrotation Yrotation
        JOINT LeftForeArm
        {
          OFFSET 20.654 0.000 0.000
          CHANNELS 6 Xposition Yposition Zposition Zrotation Xrotation Yrotation
          JOINT LeftHand
          {
            OFFSET 24.058 -0.000 -0.000
            CHANNELS 6 Xposition Yposition Zposition Zrotation Xrotation Yrotation
            JOINT LeftHandThumb1
            {
            OFFSET 4.970 -0.620 3.390
            CHANNELS 6 Xposition Yposition Zposition Zrotation Xrotation Yrotation
              JOINT LeftHandThumb2
              {
              OFFSET 2.150 -0.000 0.000
              CHANNELS 6 Xposition Yposition Zposition Zrotation Xrotation Yrotation
                JOINT LeftHandThumb3
                {
                OFFSET 2.200 -0.000 0.000
                CHANNELS 6 Xposition Yposition Zposition Zrotation Xrotation Yrotation
                  JOINT LeftHandThumb4
                  {
                  OFFSET 1.700 -0.000 0.000
                  CHANNELS 6 Xposition Yposition Zposition Zrotation Xrotation Yrotation
                  }
                }
              }
            }
            JOINT LeftHandIndex1
            {
            OFFSET 8.730 0.680 2.070
            CHANNELS 6 Xposition Yposition Zposition Zrotation Xrotation Yrotation
              JOINT LeftHandIndex2
              {
              OFFSET 2.670 -0.000 0.000
              CHANNELS 6 Xposition Yposition Zposition Zrotation Xrotation Yrotation
                JOINT LeftHandIndex3
                {
                OFFSET 2.130 -0.000 0.000
                CHANNELS 6 Xposition Yposition Zposition Zrotation Xrotation Yrotation
                  JOINT LeftHandIndex4
                  {
                  OFFSET 1.800 -0.000 0.000
                  CHANNELS 6 Xposition Yposition Zposition Zrotation Xrotation Yrotation
                  }
                }
              }
            }
            JOINT LeftHandMiddle1
            {
            OFFSET 9.220 0.670 0.550
            CHANNELS 6 Xposition Yposition Zposition Zrotation Xrotation Yrotation
              JOINT LeftHandMiddle2
              {
              OFFSET 2.660 -0.000 0.000
              CHANNELS 6 Xposition Yposition Zposition Zrotation Xrotation Yrotation
                JOINT LeftHandMiddle3
                {
                OFFSET 2.280 -0.000 0.000
                CHANNELS 6 Xposition Yposition Zposition Zrotation Xrotation Yrotation
                  JOINT LeftHandMiddle4
                  {
                  OFFSET 1.500 -0.000 0.000
                  CHANNELS 6 Xposition Yposition Zposition Zrotation Xrotation Yrotation
                  }
                }
              }
            }
            JOINT LeftHandRing1
            {
            OFFSET 9.250 0.670 -1.130
            CHANNELS 6 Xposition Yposition Zposition Zrotation Xrotation Yrotation
              JOINT LeftHandRing2
              {
              OFFSET 2.470 -0.000 0.000
              CHANNELS 6 Xposition Yposition Zposition Zrotation Xrotation Yrotation
                JOINT LeftHandRing3
                {
                OFFSET 2.210 -0.000 0.000
                CHANNELS 6 Xposition Yposition Zposition Zrotation Xrotation Yrotation
                  JOINT LeftHandRing4
                  {
                  OFFSET 1.800 -0.000 0.000
                  CHANNELS 6 Xposition Yposition Zposition Zrotation Xrotation Yrotation
                  }
                }
              }
            }
            JOINT LeftHandPinky1
            {
            OFFSET 9.350 0.660 -2.720
            CHANNELS 6 Xposition Yposition Zposition Zrotation Xrotation Yrotation
              JOINT LeftHandPinky2
              {
              OFFSET 1.630 -0.000 0.000
              CHANNELS 6 Xposition Yposition Zposition Zrotation Xrotation Yrotation
                JOINT LeftHandPinky3
                {
                OFFSET 1.710 -0.000 0.000
                CHANNELS 6 Xposition Yposition Zposition Zrotation Xrotation Yrotation
                  JOINT LeftHandPinky4
                  {
                  OFFSET 1.800 -0.000 0.000
                  CHANNELS 6 Xposition Yposition Zposition Zrotation Xrotation Yrotation
                  }
                }
              }
            }
          }
        }
      }
    }
    JOINT RightShoulder
    {
      OFFSET -0.000 42.219 0.000
      CHANNELS 6 Xposition Yposition Zposition Zrotation Xrotation Yrotation
      JOINT RightArm
      {
        OFFSET -22.859 0.000 -0.000
        CHANNELS 6 Xposition Yposition Zposition Zrotation Xrotation Yrotation
        JOINT RightForeArm
        {
          OFFSET -20.883 0.000 0.000
          CHANNELS 6 Xposition Yposition Zposition Zrotation Xrotation Yrotation
          JOINT RightHand
          {
            OFFSET -24.503 0.000 -0.000
            CHANNELS 6 Xposition Yposition Zposition Zrotation Xrotation Yrotation
            JOINT RightHandThumb1
            {
            OFFSET -4.970 -0.620 3.390
            CHANNELS 6 Xposition Yposition Zposition Zrotation Xrotation Yrotation
              JOINT RightHandThumb2
              {
              OFFSET -2.150 0.000 0.000
              CHANNELS 6 Xposition Yposition Zposition Zrotation Xrotation Yrotation
                JOINT RightHandThumb3
                {
                OFFSET -2.200 0.000 0.000
                CHANNELS 6 Xposition Yposition Zposition Zrotation Xrotation Yrotation
                  JOINT RightHandThumb4
                  {
                  OFFSET -1.700 0.000 0.000
                  CHANNELS 6 Xposition Yposition Zposition Zrotation Xrotation Yrotation
                  }
                }
              }
            }
            JOINT RightHandIndex1
            {
            OFFSET -8.730 0.680 2.070
            CHANNELS 6 Xposition Yposition Zposition Zrotation Xrotation Yrotation
              JOINT RightHandIndex2
              {
              OFFSET -2.670 0.000 0.000
              CHANNELS 6 Xposition Yposition Zposition Zrotation Xrotation Yrotation
                JOINT RightHandIndex3
                {
                OFFSET -2.130 0.000 0.000
                CHANNELS 6 Xposition Yposition Zposition Zrotation Xrotation Yrotation
                  JOINT RightHandIndex4
                  {
                  OFFSET -1.800 0.000 0.000
                  CHANNELS 6 Xposition Yposition Zposition Zrotation Xrotation Yrotation
                  }
                }
              }
            }
            JOINT RightHandMiddle1
            {
            OFFSET -9.220 0.670 0.550
            CHANNELS 6 Xposition Yposition Zposition Zrotation Xrotation Yrotation
              JOINT RightHandMiddle2
              {
              OFFSET -2.660 0.000 0.000
              CHANNELS 6 Xposition Yposition Zposition Zrotation Xrotation Yrotation
                JOINT RightHandMiddle3
                {
                OFFSET -2.280 0.000 0.000
                CHANNELS 6 Xposition Yposition Zposition Zrotation Xrotation Yrotation
                  JOINT RightHandMiddle4
                  {
                  OFFSET -1.500 0.000 0.000
                  CHANNELS 6 Xposition Yposition Zposition Zrotation Xrotation Yrotation
                  }
                }
              }
            }
            JOINT RightHandRing1
            {
            OFFSET -9.250 0.670 -1.130
            CHANNELS 6 Xposition Yposition Zposition Zrotation Xrotation Yrotation
              JOINT RightHandRing2
              {
              OFFSET -2.470 0.000 0.000
              CHANNELS 6 Xposition Yposition Zposition Zrotation Xrotation Yrotation
                JOINT RightHandRing3
                {
                OFFSET -2.210 0.000 0.000
                CHANNELS 6 Xposition Yposition Zposition Zrotation Xrotation Yrotation
                  JOINT RightHandRing4
                  {
                  OFFSET -1.800 0.000 0.000
                  CHANNELS 6 Xposition Yposition Zposition Zrotation Xrotation Yrotation
                  }
                }
              }
            }
            JOINT RightHandPinky1
            {
            OFFSET -9.350 0.660 -2.720
            CHANNELS 6 Xposition Yposition Zposition Zrotation Xrotation Yrotation
              JOINT RightHandPinky2
              {
              OFFSET -1.630 0.000 0.000
              CHANNELS 6 Xposition Yposition Zposition Zrotation Xrotation Yrotation
                JOINT RightHandPinky3
                {
                OFFSET -1.710 0.000 0.000
                CHANNELS 6 Xposition Yposition Zposition Zrotation Xrotation Yrotation
                  JOINT RightHandPinky4
                  {
                  OFFSET -1.800 0.000 0.000
                  CHANNELS 6 Xposition Yposition Zposition Zrotation Xrotation Yrotation
                  }
                }
              }
            }
          }
        }
      }
    }
    JOINT Neck
    {
      OFFSET -0.000 42.219 0.000
      CHANNELS 6 Xposition Yposition Zposition Zrotation Xrotation Yrotation
      JOINT Head
      {
        OFFSET -0.000 13.742 -0.000
        CHANNELS 6 Xposition Yposition Zposition Zrotation Xrotation Yrotation
        End Site
        {
          OFFSET -0.000 0.055 -0.000
        }
      }
    }
  }
}
MOTION
Frames:	6
Frame Time:	0.0333333
41.1002 24.6637 -254.588 -1.33356 7.7696 -3.0318 6.56098 -6.24616 1.43764 2.37269 -2.69222 2.57775 5.96046e-06 -50.4352 0 0.623516 -4.85033 0.0527221 -8.9407e-06 -36.9568 -2.38419e-05 2.2477 -8.45455 1.68518 -7.00966 -6.19132 2.01962 3.45723 -1.37174 2.5484 5.96046e-06 -50.1431 7.15256e-05 2.54774 -8.74841 0.38775 -2.98023e-06 -36.4258 2.38419e-05 -8.02717 -2.22734 -4.95509 0 6.49133 -6.49128 -2.45867 -7.41358 3.56105 5.96046e-06 42.2195 -2.38419e-05 -44.3676 1.27799e-05 -4.02649 17.9486 0 7.15256e-05 -11.0409 36.5784 -35.9683 23.2228 -5.96046e-06 -3.57628e-05 1.18705e-05 1.19528e-05 -27.0986 20.6601 0 0 -7.83476 0.169913 -8.5993 0.0062 0.0497 0.0339 0 0 0 0 0.0215 0 0 0 0 0 0.022 0 0 0 0 0 0.017 0 0 0 0 -0.0068 0.0873 0.0207 0 0 0 0 0.0267 0 0 0 0 0 0.0213 0 0 0 0 0 0.018 0 0 0 0 -0.0067 0.0922 0.0055 0 0 0 0 0.0266 0 0 0 0 0 0.0228 0 0 0 0 0 0.015 0 0 0 0 -0.0067 0.0925 -0.0113 0 0 0 0 0.0247 0 0 0 0 0 0.0221 0 0 0 0 0 0.018 0 0 0 0 -0.0066 0.0935 -0.0272 0 0 0 0 0.0163 0 0 0 0 0 0.0171 0 0 0 0 0 0.018 0 0 0 0 5.96046e-06 42.2195 -2.38419e-05 46.0156 -4.05543e-06 3.1973 -22.5966 2.98023e-06 4.76837e-05 36.7536 7.99974 -17.6957 -24.2633 -1.19209e-05 -7.15256e-05 -2.97915e-06 1.70755e-06 38.2821 -27.5519 -1.78814e-05 2.38419e-05 -28.7701 0.179121 -12.2565 -0.0062 0.0497 0.0339 0 0 0 0 0.0215 0 0 0 0 0 0.022 0 0 0 0 0 0.017 0 0 0 0 0.0068 0.0873 0.0207 0 0 0 0 0.0267 0 0 0 0 0 0.0213 0 0 0 0 0 0.018 0 0 0 0 0.0067 0.0922 0.0055 0 0 0 0 0.0266 0 0 0 0 0 0.0228 0 0 0 0 0 0.015 0 0 0 0 0.0067 0.0925 -0.0113 0 0 0 0 0.0247 0 0 0 0 0 0.0221 0 0 0 0 0 0.018 0 0 0 0 0.0066 0.0935 -0.0272 0 0 0 0 0.0163 0 0 0 0 0 0.0171 0 0 0 0 0 0.018 0 0 0 0 5.96046e-06 42.2195 -2.38419e-05 17.3595 8.05033 -2.50669 5.96046e-06 16.3442 2.38419e-05 1.02453e-05 -1.10991e-05 5.33609e-07 
41.1904 24.6338 -254.601 -1.23772 7.75477 -2.87225 6.56038 -6.24635 1.47073 2.15055 -2.32512 2.3071 -2.98023e-06 -50.5901 4.76837e-05 0.706065 -5.68583 0.0699553 -2.98023e-06 -36.8428 -7.15256e-05 2.33216 -8.1708 1.72149 -7.02324 -6.21436 1.99599 3.46428 -1.33426 2.30209 0 -50.1312 0 2.26742 -8.87332 0.349928 -2.98023e-06 -36.3896 0 -8.02195 -2.25193 -4.95936 -8.9407e-06 6.50192 -6.50194 -2.56673 -7.40443 3.65587 8.9407e-06 42.2195 0 -44.3027 1.32869e-05 -4.30889 17.9028 5.96046e-06 -4.76837e-05 -13.0084 34.7548 -33.0252 22.9911 -1.19209e-05 3.57628e-05 5.85566e-06 1.19528e-05 -33.4709 20.3925 1.19209e-05 2.38419e-05 -9.80507 0.0866955 -4.87622 0.0062 0.0497 0.0339 0 0 0 0 0.0215 0 0 0 0 0 0.022 0 0 0 0 0 0.017 0 0 0 0 -0.0068 0.0873 0.0207 0 0 0 0 0.0267 0 0 0 0 0 0.0213 0 0 0 0 0 0.018 0 0 0 0 -0.0067 0.0922 0.0055 0 0 0 0 0.0266 0 0 0 0 0 0.0228 0 0 0 0 0 0.015 0 0 0 0 -0.0067 0.0925 -0.0113 0 0 0 0 0.0247 0 0 0 0 0 0.0221 0 0 0 0 0 0.018 0 0 0 0 -0.0066 0.0935 -0.0272 0 0 0 0 0.0163 0 0 0 0 0 0.0171 0 0 0 0 0 0.018 0 0 0 0 8.9407e-06 42.2195 0 46.5854 -4.37559e-06 3.43794 -22.4304 -2.98023e-06 0 36.0563 8.00922 -18.4788 -24.3648 -1.19209e-05 2.38419e-05 1.77204e-06 2.56132e-06 38.9464 -27.5569 1.19209e-05 -2.38419e-05 -28.3953 0.2002 -13.0266 -0.0062 0.0497 0.0339 0 0 0 0 0.0215 0 0 0 0 0 0.022 0 0 0 0 0 0.017 0 0 0 0 0.0068 0.0873 0.0207 0 0 0 0 0.0267 0 0 0 0 0 0.0213 0 0 0 0 0 0.018 0 0 0 0 0.0067 0.0922 0.0055 0 0 0 0 0.0266 0 0 0 0 0 0.0228 0 0 0 0 0 0.015 0 0 0 0 0.0067 0.0925 -0.0113 0 0 0 0 0.0247 0 0 0 0 0 0.0221 0 0 0 0 0 0.018 0 0 0 0 0.0066 0.0935 -0.0272 0 0 0 0 0.0163 0 0 0 0 0 0.0171 0 0 0 0 0 0.018 0 0 0 0 8.9407e-06 42.2195 0 17.5859 7.95696 -2.51224 5.96046e-06 16.4063 -4.76837e-05 1.01652e-05 -7.68396e-06 4.26887e-07 
41.2666 24.6124 -254.616 -1.21569 7.73204 -2.89974 6.57287 -6.24153 1.47984 2.04739 -2.00583 2.22093 8.9407e-06 -50.5656 4.76837e-05 0.735058 -6.32086 0.0809311 5.96046e-06 -36.9023 -7.15256e-05 2.41404 -7.92479 1.75911 -7.02494 -6.23931 1.9901 3.54225 -1.28576 2.23222 -2.98023e-06 -50.1488 -4.76837e-05 2.01854 -8.97215 0.314926 8.9407e-06 -36.3372 -2.38419e-05 -7.98261 -2.28985 -4.94348 0 6.50972 -6.50973 -2.53591 -7.38459 3.58934 -8.9407e-06 42.2195 0 -44.2626 1.16327e-05 -4.35128 17.8967 -1.78814e-05 0 -14.3518 32.9655 -30.6139 22.7694 -1.19209e-05 0 -9.87752e-06 -1.19528e-05 -39.5695 20.2111 5.96046e-06 5.96046e-06 -11.3853 -0.154352 1.63262 0.0062 0.0497 0.0339 0 0 0 0 0.0215 0 0 0 0 0 0.022 0 0 0 0 0 0.017 0 0 0 0 -0.0068 0.0873 0.0207 0 0 0 0 0.0267 0 0 0 0 0 0.0213 0 0 0 0 0 0.018 0 0 0 0 -0.0067 0.0922 0.0055 0 0 0 0 0.0266 0 0 0 0 0 0.0228 0 0 0 0 0 0.015 0 0 0 0 -0.0067 0.0925 -0.0113 0 0 0 0 0.0247 0 0 0 0 0 0.0221 0 0 0 0 0 0.018 0 0 0 0 -0.0066 0.0935 -0.0272 0 0 0 0 0.0163 0 0 0 0 0 0.0171 0 0 0 0 0 0.018 0 0 0 0 -8.9407e-06 42.2195 0 46.5758 -5.97641e-06 3.48823 -22.3169 1.49012e-06 4.76837e-05 36.1236 7.75513 -18.58 -24.5132 1.19209e-05 2.38419e-05 4.80743e-06 8.53773e-07 39.109 -27.5617 -1.78814e-05 0 -28.2967 0.192024 -13.6604 -0.0062 0.0497 0.0339 0 0 0 0 0.0215 0 0 0 0 0 0.022 0 0 0 0 0 0.017 0 0 0 0 0.0068 0.0873 0.0207 0 0 0 0 0.0267 0 0 0 0 0 0.0213 0 0 0 0 0 0.018 0 0 0 0 0.0067 0.0922 0.0055 0 0 0 0 0.0266 0 0 0 0 0 0.0228 0 0 0 0 0 0.015 0 0 0 0 0.0067 0.0925 -0.0113 0 0 0 0 0.0247 0 0 0 0 0 0.0221 0 0 0 0 0 0.018 0 0 0 0 0.0066 0.0935 -0.0272 0 0 0 0 0.0163 0 0 0 0 0 0.0171 0 0 0 0 0 0.018 0 0 0 0 -8.9407e-06 42.2195 0 17.7025 7.85914 -2.4991 -1.78814e-05 16.4389 2.38419e-05 9.04467e-06 -7.68396e-06 2.13443e-07 
41.3336 24.5955 -254.631 -1.16335 7.70325 -3.11391 6.58796 -6.23932 1.46854 1.88787 -1.66255 2.29065 -5.96046e-06 -50.6167 7.15256e-05 0.884566 -7.0027 0.10785 1.19209e-05 -36.8699 -2.38419e-05 2.46326 -7.6752 1.77599 -7.02552 -6.25911 2.00059 3.59974 -1.23212 2.31748 2.98023e-06 -50.1621 0 1.75853 -9.05681 0.276902 0 -36.291 -2.38419e-05 -7.91191 -2.33736 -4.90908 1.49012e-05 6.51582 -6.51577 -2.49525 -7.36299 3.53314 -1.19209e-05 42.2195 -2.38419e-05 -44.2543 1.12458e-05 -4.28232 17.8941 -1.19209e-05 -2.38419e-05 -15.4507 31.3995 -28.7636 22.5887 1.78814e-05 0 -4.76104e-06 0 -44.168 20.1962 1.19209e-05 -1.78814e-05 -14.3372 -0.368817 7.7769 0.0062 0.0497 0.0339 0 0 0 0 0.0215 0 0 0 0 0 0.022 0 0 0 0 0 0.017 0 0 0 0 -0.0068 0.0873 0.0207 0 0 0 0 0.0267 0 0 0 0 0 0.0213 0 0 0 0 0 0.018 0 0 0 0 -0.0067 0.0922 0.0055 0 0 0 0 0.0266 0 0 0 0 0 0.0228 0 0 0 0 0 0.015 0 0 0 0 -0.0067 0.0925 -0.0113 0 0 0 0 0.0247 0 0 0 0 0 0.0221 0 0 0 0 0 0.018 0 0 0 0 -0.0066 0.0935 -0.0272 0 0 0 0 0.0163 0 0 0 0 0 0.0171 0 0 0 0 0 0.018 0 0 0 0 -1.19209e-05 42.2195 -2.38419e-05 46.4585 -5.54953e-06 3.43946 -22.2717 0 -4.76837e-05 36.3439 7.50362 -18.3962 -24.6319 1.78814e-05 2.38419e-05 -9.80066e-07 2.56132e-06 39.0777 -27.5658 1.19209e-05 7.15256e-05 -28.3464 0.178752 -14.29 -0.0062 0.0497 0.0339 0 0 0 0 0.0215 0 0 0 0 0 0.022 0 0 0 0 0 0.017 0 0 0 0 0.0068 0.0873 0.0207 0 0 0 0 0.0267 0 0 0 0 0 0.0213 0 0 0 0 0 0.018 0 0 0 0 0.0067 0.0922 0.0055 0 0 0 0 0.0266 0 0 0 0 0 0.0228 0 0 0 0 0 0.015 0 0 0 0 0.0067 0.0925 -0.0113 0 0 0 0 0.0247 0 0 0 0 0 0.0221 0 0 0 0 0 0.018 0 0 0 0 0.0066 0.0935 -0.0272 0 0 0 0 0.0163 0 0 0 0 0 0.0171 0 0 0 0 0 0.018 0 0 0 0 -1.19209e-05 42.2195 -2.38419e-05 17.7779 7.84197 -2.505 -5.96046e-06 16.4613 2.38419e-05 6.2699e-06 -7.68397e-06 0 
41.4384 24.7042 -254.676 -1.24362 7.61126 -3.03897 6.62978 -6.24534 1.50864 1.76841 -1.23521 1.91501 8.9407e-06 -50.7691 4.76837e-05 1.16725 -7.74667 0.157359 0 -36.7351 2.38419e-05 2.48823 -7.22112 1.76732 -7.03149 -6.32205 1.95792 3.79748 -1.16526 1.95746 8.9407e-06 -50.3052 2.38419e-05 1.5004 -9.09811 0.237303 5.96046e-06 -36.2324 2.38419e-05 -7.78546 -2.45437 -4.84983 0 6.50909 -6.50911 -2.31823 -7.23722 3.22447 -2.98023e-06 42.2195 -4.76837e-05 -44.2101 1.16072e-05 -4.23228 18.0156 0 7.15256e-05 -16.5756 29.9413 -21.1398 22.1447 0 -7.15256e-05 -7.9314e-06 5.12264e-06 -58.1355 20.3311 4.17233e-05 1.49012e-06 -19.9187 -1.00491 17.7212 0.0062 0.0497 0.0339 0 0 0 0 0.0215 0 0 0 0 0 0.022 0 0 0 0 0 0.017 0 0 0 0 -0.0068 0.0873 0.0207 0 0 0 0 0.0267 0 0 0 0 0 0.0213 0 0 0 0 0 0.018 0 0 0 0 -0.0067 0.0922 0.0055 0 0 0 0 0.0266 0 0 0 0 0 0.0228 0 0 0 0 0 0.015 0 0 0 0 -0.0067 0.0925 -0.0113 0 0 0 0 0.0247 0 0 0 0 0 0.0221 0 0 0 0 0 0.018 0 0 0 0 -0.0066 0.0935 -0.0272 0 0 0 0 0.0163 0 0 0 0 0 0.0171 0 0 0 0 0 0.018 0 0 0 0 -2.98023e-06 42.2195 -4.76837e-05 46.0176 -5.38945e-06 3.44417 -22.1312 2.98023e-06 2.38419e-05 36.9902 6.55445 -18.7046 -24.7468 0 4.76837e-05 5.01265e-07 3.41509e-06 39.5561 -27.5733 0 -2.38419e-05 -28.3928 0.153285 -14.9737 -0.0062 0.0497 0.0339 0 0 0 0 0.0215 0 0 0 0 0 0.022 0 0 0 0 0 0.017 0 0 0 0 0.0068 0.0873 0.0207 0 0 0 0 0.0267 0 0 0 0 0 0.0213 0 0 0 0 0 0.018 0 0 0 0 0.0067 0.0922 0.0055 0 0 0 0 0.0266 0 0 0 0 0 0.0228 0 0 0 0 0 0.015 0 0 0 0 0.0067 0.0925 -0.0113 0 0 0 0 0.0247 0 0 0 0 0 0.0221 0 0 0 0 0 0.018 0 0 0 0 0.0066 0.0935 -0.0272 0 0 0 0 0.0163 0 0 0 0 0 0.0171 0 0 0 0 0 0.018 0 0 0 0 -2.98023e-06 42.2195 -4.76837e-05 17.6795 7.79638 -2.47586 1.78814e-05 16.424 0 1.06722e-05 -1.19528e-05 6.4033e-07 
41.4689 24.7106 -254.694 -1.27504 7.61767 -3.02287 6.64012 -6.23217 1.52545 1.72979 -1.12302 1.77967 0 -50.8747 2.38419e-05 1.28396 -8.0242 0.179259 -8.9407e-06 -36.6381 -2.38419e-05 2.49826 -7.06724 1.76567 -7.02785 -6.3287 1.94392 3.86813 -1.18376 1.82799 -1.49012e-05 -50.3231 2.38419e-05 1.42928 -9.10874 0.226312 2.98023e-06 -36.2354 2.38419e-05 -7.73345 -2.51093 -4.82633 0 6.51196 -6.51195 -2.2516 -7.22908 3.12244 2.98023e-06 42.2195 -4.76837e-05 -44.2004 1.11391e-05 -4.23483 18.047 5.96046e-06 0 -16.1654 31.0804 -19.1818 22.064 -2.98023e-05 4.76837e-05 6.6145e-06 -1.19528e-05 -60.5123 20.6285 -1.19209e-05 -3.57628e-05 -20.2416 -1.11068 19.7763 0.0062 0.0497 0.0339 0 0 0 0 0.0215 0 0 0 0 0 0.022 0 0 0 0 0 0.017 0 0 0 0 -0.0068 0.0873 0.0207 0 0 0 0 0.0267 0 0 0 0 0 0.0213 0 0 0 0 0 0.018 0 0 0 0 -0.0067 0.0922 0.0055 0 0 0 0 0.0266 0 0 0 0 0 0.0228 0 0 0 0 0 0.015 0 0 0 0 -0.0067 0.0925 -0.0113 0 0 0 0 0.0247 0 0 0 0 0 0.0221 0 0 0 0 0 0.018 0 0 0 0 -0.0066 0.0935 -0.0272 0 0 0 0 0.0163 0 0 0 0 0 0.0171 0 0 0 0 0 0.018 0 0 0 0 2.98023e-06 42.2195 -4.76837e-05 45.8737 -5.81634e-06 3.46153 -22.072 5.96046e-06 0 37.1872 6.32004 -18.8105 -24.7856 5.96046e-06 -4.76837e-05 -7.6767e-06 2.56132e-06 39.7124 -27.5761 0 0 -28.4258 0.144345 -15.1879 -0.0062 0.0497 0.0339 0 0 0 0 0.0215 0 0 0 0 0 0.022 0 0 0 0 0 0.017 0 0 0 0 0.0068 0.0873 0.0207 0 0 0 0 0.0267 0 0 0 0 0 0.0213 0 0 0 0 0 0.018 0 0 0 0 0.0067 0.0922 0.0055 0 0 0 0 0.0266 0 0 0 0 0 0.0228 0 0 0 0 0 0.015 0 0 0 0 0.0067 0.0925 -0.0113 0 0 0 0 0.0247 0 0 0 0 0 0.0221 0 0 0 0 0 0.018 0 0 0 0 0.0066 0.0935 -0.0272 0 0 0 0 0.0163 0 0 0 0 0 0.0171 0 0 0 0 0 0.018 0 0 0 0 2.98023e-06 42.2195 -4.76837e-05 17.6377 7.7631 -2.45917 1.19209e-05 16.429 2.38419e-05 1.29133e-05 -1.02453e-05 4.26887e-07 
